<svg xmlns="http://www.w3.org/2000/svg" viewBox="0 0 77.62 75.6"><title>icon-down-01</title><path d="M38.67,55a4,4,0,0,1-4-4V5a4,4,0,0,1,8,0V51A4,4,0,0,1,38.67,55Z" style="fill:#f66a55"/><path d="M38.84,54.56A4,4,0,0,1,36,47.74l17.6-17.61a4,4,0,1,1,5.66,5.66L41.67,53.39A4,4,0,0,1,38.84,54.56Z" style="fill:#f66a55"/><path d="M38.58,54.56a4,4,0,0,1-2.83-1.17L18.14,35.79a4,4,0,0,1,5.66-5.66L41.4,47.74a4,4,0,0,1-2.82,6.82Z" style="fill:#f66a55"/><path d="M75,73.37H2.09V51a4,4,0,0,1,8,0V65.37H67V51a4,4,0,1,1,8,0Z" style="fill:#f66a55"/></svg>