<svg xmlns="http://www.w3.org/2000/svg" xmlns:xlink="http://www.w3.org/1999/xlink" viewBox="0 0 77.62 75.6"><defs><linearGradient id="a" x1="38.81" y1="1" x2="38.81" y2="75.34" gradientUnits="userSpaceOnUse"><stop offset="0" stop-color="#9444a0"/><stop offset="1" stop-color="#522272"/></linearGradient><clipPath id="c"><path d="M31.76,56c-.28.35-.55.65-.79,1a8.38,8.38,0,0,0-1.4,3.55.79.79,0,0,1-.57.7,9.92,9.92,0,0,1-5.14.64,7.41,7.41,0,0,1-5.18-3.62,9.76,9.76,0,0,0-3.93-3.82,4.69,4.69,0,0,0-3.37-.33c-.67.18-.82.61-.39,1.13a3.71,3.71,0,0,0,1,.93,8.75,8.75,0,0,1,3.22,3.42,24.93,24.93,0,0,1,1.38,2.73,7.21,7.21,0,0,0,5.34,4.21,16,16,0,0,0,5.86.12c.47-.07.94-.12,1.44-.18a1.65,1.65,0,0,1,0,.32c0,2.12,0,4.24.06,6.36.06,1.85-1.27,2.54-2.89,2a36.57,36.57,0,0,1-9.16-4.59A37.93,37.93,0,0,1,6,58.57,38.47,38.47,0,0,1,.78,36.49a37.9,37.9,0,0,1,5.5-17.25A38.25,38.25,0,0,1,33.35,1.38,38.74,38.74,0,0,1,50,2.66,37.78,37.78,0,0,1,62.21,9a36.61,36.61,0,0,1,5.42,5.14,38.18,38.18,0,0,1,9,20.25,38.55,38.55,0,0,1,.15,7.82,38.16,38.16,0,0,1-24,32.42,12.51,12.51,0,0,1-2,.65c-1.64.34-2.43-.72-2.41-2.1,0-3.47.09-7,.06-10.42a9.61,9.61,0,0,0-1.78-6c-.2-.26-.43-.49-.7-.79.69-.1,1.32-.18,1.94-.28a21.64,21.64,0,0,0,8.46-3,14.57,14.57,0,0,0,6.21-9.14,25.53,25.53,0,0,0,.69-7.18,14.46,14.46,0,0,0-3.59-9.17.67.67,0,0,1-.18-.74,14,14,0,0,0-.4-9.49c-.11-.28-.31-.33-.58-.35a10,10,0,0,0-4.88,1.09c-1.67.82-3.26,1.8-4.9,2.68a.9.9,0,0,1-.62.11,35.35,35.35,0,0,0-10.69-1.16,32.23,32.23,0,0,0-7.56,1.14.92.92,0,0,1-.86-.13,26.06,26.06,0,0,0-6.57-3.28,8.87,8.87,0,0,0-3.12-.45.56.56,0,0,0-.58.41,13.83,13.83,0,0,0-.37,9.49.6.6,0,0,1-.21.68,14.63,14.63,0,0,0-2.92,5.24,18.59,18.59,0,0,0-.6,7,22.52,22.52,0,0,0,1.13,5.86,14.37,14.37,0,0,0,8.7,9,26.67,26.67,0,0,0,7,1.67A1.35,1.35,0,0,1,31.76,56Z" style="fill:url(#a)"/></clipPath><linearGradient id="d" x1="0.63" y1="0.9" x2="0.63" y2="75.7" xlink:href="#a"/><linearGradient id="e" x1="38.81" y1="0.9" x2="38.81" y2="75.7" xlink:href="#a"/><linearGradient id="f" x1="76.97" y1="0.9" x2="76.97" y2="75.7" xlink:href="#a"/></defs><title>icon-git-link</title><path d="M31.76,56c-.28.35-.55.65-.79,1a8.38,8.38,0,0,0-1.4,3.55.79.79,0,0,1-.57.7,9.92,9.92,0,0,1-5.14.64,7.41,7.41,0,0,1-5.18-3.62,9.76,9.76,0,0,0-3.93-3.82,4.69,4.69,0,0,0-3.37-.33c-.67.18-.82.61-.39,1.13a3.71,3.71,0,0,0,1,.93,8.75,8.75,0,0,1,3.22,3.42,24.93,24.93,0,0,1,1.38,2.73,7.21,7.21,0,0,0,5.34,4.21,16,16,0,0,0,5.86.12c.47-.07.94-.12,1.44-.18a1.65,1.65,0,0,1,0,.32c0,2.12,0,4.24.06,6.36.06,1.85-1.27,2.54-2.89,2a36.57,36.57,0,0,1-9.16-4.59A37.93,37.93,0,0,1,6,58.57,38.47,38.47,0,0,1,.78,36.49a37.9,37.9,0,0,1,5.5-17.25A38.25,38.25,0,0,1,33.35,1.38,38.74,38.74,0,0,1,50,2.66,37.78,37.78,0,0,1,62.21,9a36.61,36.61,0,0,1,5.42,5.14,38.18,38.18,0,0,1,9,20.25,38.55,38.55,0,0,1,.15,7.82,38.16,38.16,0,0,1-24,32.42,12.51,12.51,0,0,1-2,.65c-1.64.34-2.43-.72-2.41-2.1,0-3.47.09-7,.06-10.42a9.61,9.61,0,0,0-1.78-6c-.2-.26-.43-.49-.7-.79.69-.1,1.32-.18,1.94-.28a21.64,21.64,0,0,0,8.46-3,14.57,14.57,0,0,0,6.21-9.14,25.53,25.53,0,0,0,.69-7.18,14.46,14.46,0,0,0-3.59-9.17.67.67,0,0,1-.18-.74,14,14,0,0,0-.4-9.49c-.11-.28-.31-.33-.58-.35a10,10,0,0,0-4.88,1.09c-1.67.82-3.26,1.8-4.9,2.68a.9.9,0,0,1-.62.11,35.35,35.35,0,0,0-10.69-1.16,32.23,32.23,0,0,0-7.56,1.14.92.92,0,0,1-.86-.13,26.06,26.06,0,0,0-6.57-3.28,8.87,8.87,0,0,0-3.12-.45.56.56,0,0,0-.58.41,13.83,13.83,0,0,0-.37,9.49.6.6,0,0,1-.21.68,14.63,14.63,0,0,0-2.92,5.24,18.59,18.59,0,0,0-.6,7,22.52,22.52,0,0,0,1.13,5.86,14.37,14.37,0,0,0,8.7,9,26.67,26.67,0,0,0,7,1.67A1.35,1.35,0,0,1,31.76,56Z" style="fill:url(#a)"/><g style="clip-path:url(#c)"><rect x="0.57" y="0.9" width="0.11" height="74.81" style="fill:url(#d)"/><rect x="0.69" y="0.9" width="76.24" height="74.81" style="fill:url(#e)"/><rect x="76.93" y="0.9" width="0.08" height="74.81" style="fill:url(#f)"/></g></svg>